<svg xmlns="http://www.w3.org/2000/svg" width="1320" height="1040" viewBox="0 0 1320 1040"><rect width="100%" height="100%" fill="#f6f4ef"/><style>text{font-family:ui-sans-serif,system-ui,-apple-system,BlinkMacSystemFont,"Segoe UI",sans-serif;fill:#1f2937}.small{font-size:12px}.body{font-size:14px}.label{font-size:15px;font-weight:600}.title{font-size:28px;font-weight:700}.cardtitle{font-size:13px;font-weight:700;letter-spacing:.08em;text-transform:uppercase;fill:#475569}.metric{font-size:30px;font-weight:700}.paneltitle{font-size:18px;font-weight:700}</style><text x="40" y="56" class="title">Agent Lab Experiment Dashboard</text><text x="40" y="84" class="body">Best run AL-20260329-012 reached 1.3838 val_bpb. 17 scored runs are tracked here, with 8 kept and 9 discarded.</text><rect x="40" y="110" width="290" height="78" rx="14" fill="#ffffff" stroke="#d6d3d1"/><text x="60" y="134" class="cardtitle">Current Best</text><text x="60" y="164" class="metric">1.3838</text><text x="60" y="180" class="small">AL-20260329-012 (d99bcaa)</text><rect x="350" y="110" width="290" height="78" rx="14" fill="#ffffff" stroke="#d6d3d1"/><text x="370" y="134" class="cardtitle">Tracked Runs</text><text x="370" y="164" class="metric">17</text><text x="370" y="180" class="small">8 keep / 9 discard</text><rect x="660" y="110" width="290" height="78" rx="14" fill="#ffffff" stroke="#d6d3d1"/><text x="680" y="134" class="cardtitle">Primary Metric</text><text x="680" y="164" class="metric">final_int8_ttt_lora</text><text x="680" y="180" class="small">lower is better</text><rect x="970" y="110" width="290" height="78" rx="14" fill="#ffffff" stroke="#d6d3d1"/><text x="990" y="134" class="cardtitle">Mean val_bpb</text><text x="990" y="164" class="metric">1.4232</text><text x="990" y="180" class="small">across scored runs</text><rect x="40" y="220" width="610" height="320" rx="18" fill="#ffffff" stroke="#d6d3d1"/><text x="60" y="248" class="paneltitle">val_bpb by experiment</text><line x1="110" y1="498" x2="626" y2="498" stroke="#94a3b8" stroke-width="1.5"/><line x1="110" y1="498" x2="110" y2="268" stroke="#94a3b8" stroke-width="1.5"/><text x="368.00" y="526.00" class="small">experiment order</text><text x="62.00" y="258.00" class="small">val_bpb</text><line x1="110" y1="498.00" x2="626" y2="498.00" stroke="#e5e7eb" stroke-width="1"/><text x="56.00" y="502.00" class="small">1.3838</text><line x1="110" y1="383.00" x2="626" y2="383.00" stroke="#e5e7eb" stroke-width="1"/><text x="56.00" y="387.00" class="small">1.4969</text><line x1="110" y1="268.00" x2="626" y2="268.00" stroke="#e5e7eb" stroke-width="1"/><text x="56.00" y="272.00" class="small">1.6099</text><polyline fill="none" stroke="#1d4ed8" stroke-width="3" points="110.00,268.00 142.25,286.11 174.50,457.21 206.75,468.40 239.00,482.54 271.25,470.03 303.50,490.07 335.75,490.37 368.00,484.27 400.25,482.94 432.50,474.81 464.75,478.37 497.00,486.30 529.25,491.79 561.50,484.57 593.75,498.00 626.00,490.17"/><circle cx="110.00" cy="268.00" r="5.5" fill="#1f7a4d" stroke="#ffffff" stroke-width="1.5"/><text x="118.00" y="260.00" class="small">001</text><circle cx="142.25" cy="286.11" r="5.5" fill="#1f7a4d" stroke="#ffffff" stroke-width="1.5"/><text x="150.25" y="278.11" class="small">002</text><circle cx="174.50" cy="457.21" r="5.5" fill="#1f7a4d" stroke="#ffffff" stroke-width="1.5"/><text x="182.50" y="449.21" class="small">003</text><circle cx="206.75" cy="468.40" r="5.5" fill="#1f7a4d" stroke="#ffffff" stroke-width="1.5"/><text x="214.75" y="460.40" class="small">004</text><circle cx="239.00" cy="482.54" r="5.5" fill="#1f7a4d" stroke="#ffffff" stroke-width="1.5"/><text x="247.00" y="474.54" class="small">001</text><circle cx="271.25" cy="470.03" r="5.5" fill="#b03a2e" stroke="#ffffff" stroke-width="1.5"/><text x="279.25" y="462.03" class="small">002</text><circle cx="303.50" cy="490.07" r="5.5" fill="#1f7a4d" stroke="#ffffff" stroke-width="1.5"/><text x="311.50" y="482.07" class="small">003</text><circle cx="335.75" cy="490.37" r="5.5" fill="#1f7a4d" stroke="#ffffff" stroke-width="1.5"/><text x="343.75" y="482.37" class="small">004</text><circle cx="368.00" cy="484.27" r="5.5" fill="#b03a2e" stroke="#ffffff" stroke-width="1.5"/><text x="376.00" y="476.27" class="small">005</text><circle cx="400.25" cy="482.94" r="5.5" fill="#b03a2e" stroke="#ffffff" stroke-width="1.5"/><text x="408.25" y="474.94" class="small">006</text><circle cx="432.50" cy="474.81" r="5.5" fill="#b03a2e" stroke="#ffffff" stroke-width="1.5"/><text x="440.50" y="466.81" class="small">007</text><circle cx="464.75" cy="478.37" r="5.5" fill="#b03a2e" stroke="#ffffff" stroke-width="1.5"/><text x="472.75" y="470.37" class="small">008</text><circle cx="497.00" cy="486.30" r="5.5" fill="#b03a2e" stroke="#ffffff" stroke-width="1.5"/><text x="505.00" y="478.30" class="small">009</text><circle cx="529.25" cy="491.79" r="5.5" fill="#b03a2e" stroke="#ffffff" stroke-width="1.5"/><text x="537.25" y="483.79" class="small">010</text><circle cx="561.50" cy="484.57" r="5.5" fill="#b03a2e" stroke="#ffffff" stroke-width="1.5"/><text x="569.50" y="476.57" class="small">011</text><circle cx="593.75" cy="498.00" r="5.5" fill="#1f7a4d" stroke="#ffffff" stroke-width="1.5"/><text x="601.75" y="490.00" class="small">012</text><circle cx="626.00" cy="490.17" r="5.5" fill="#b03a2e" stroke="#ffffff" stroke-width="1.5"/><text x="634.00" y="482.17" class="small">013</text><rect x="670" y="220" width="610" height="320" rx="18" fill="#ffffff" stroke="#d6d3d1"/><text x="690" y="248" class="paneltitle">Running best frontier</text><line x1="740" y1="498" x2="1256" y2="498" stroke="#94a3b8" stroke-width="1.5"/><line x1="740" y1="498" x2="740" y2="268" stroke="#94a3b8" stroke-width="1.5"/><text x="998.00" y="526.00" class="small">experiment order</text><text x="692.00" y="258.00" class="small">best so far</text><line x1="740" y1="498.00" x2="1256" y2="498.00" stroke="#e5e7eb" stroke-width="1"/><text x="686.00" y="502.00" class="small">1.3838</text><line x1="740" y1="383.00" x2="1256" y2="383.00" stroke="#e5e7eb" stroke-width="1"/><text x="686.00" y="387.00" class="small">1.4969</text><line x1="740" y1="268.00" x2="1256" y2="268.00" stroke="#e5e7eb" stroke-width="1"/><text x="686.00" y="272.00" class="small">1.6099</text><polyline fill="none" stroke="#1d4ed8" stroke-width="3" points="740.00,268.00 772.25,286.11 804.50,457.21 836.75,468.40 869.00,482.54 901.25,482.54 933.50,490.07 965.75,490.37 998.00,490.37 1030.25,490.37 1062.50,490.37 1094.75,490.37 1127.00,490.37 1159.25,491.79 1191.50,491.79 1223.75,498.00 1256.00,498.00"/><circle cx="740.00" cy="268.00" r="5.5" fill="#1f7a4d" stroke="#ffffff" stroke-width="1.5"/><circle cx="772.25" cy="286.11" r="5.5" fill="#1f7a4d" stroke="#ffffff" stroke-width="1.5"/><circle cx="804.50" cy="457.21" r="5.5" fill="#1f7a4d" stroke="#ffffff" stroke-width="1.5"/><circle cx="836.75" cy="468.40" r="5.5" fill="#1f7a4d" stroke="#ffffff" stroke-width="1.5"/><circle cx="869.00" cy="482.54" r="5.5" fill="#1f7a4d" stroke="#ffffff" stroke-width="1.5"/><circle cx="901.25" cy="482.54" r="5.5" fill="#b03a2e" stroke="#ffffff" stroke-width="1.5"/><circle cx="933.50" cy="490.07" r="5.5" fill="#1f7a4d" stroke="#ffffff" stroke-width="1.5"/><circle cx="965.75" cy="490.37" r="5.5" fill="#1f7a4d" stroke="#ffffff" stroke-width="1.5"/><circle cx="998.00" cy="490.37" r="5.5" fill="#b03a2e" stroke="#ffffff" stroke-width="1.5"/><circle cx="1030.25" cy="490.37" r="5.5" fill="#b03a2e" stroke="#ffffff" stroke-width="1.5"/><circle cx="1062.50" cy="490.37" r="5.5" fill="#b03a2e" stroke="#ffffff" stroke-width="1.5"/><circle cx="1094.75" cy="490.37" r="5.5" fill="#b03a2e" stroke="#ffffff" stroke-width="1.5"/><circle cx="1127.00" cy="490.37" r="5.5" fill="#b03a2e" stroke="#ffffff" stroke-width="1.5"/><circle cx="1159.25" cy="491.79" r="5.5" fill="#b03a2e" stroke="#ffffff" stroke-width="1.5"/><circle cx="1191.50" cy="491.79" r="5.5" fill="#b03a2e" stroke="#ffffff" stroke-width="1.5"/><circle cx="1223.75" cy="498.00" r="5.5" fill="#1f7a4d" stroke="#ffffff" stroke-width="1.5"/><circle cx="1256.00" cy="498.00" r="5.5" fill="#b03a2e" stroke="#ffffff" stroke-width="1.5"/><rect x="40" y="590" width="610" height="320" rx="18" fill="#ffffff" stroke="#d6d3d1"/><text x="60" y="618" class="paneltitle">Training steps vs val_bpb</text><line x1="110" y1="868" x2="626" y2="868" stroke="#94a3b8" stroke-width="1.5"/><line x1="110" y1="868" x2="110" y2="638" stroke="#94a3b8" stroke-width="1.5"/><text x="368.00" y="896.00" class="small">steps in 600s</text><text x="62.00" y="628.00" class="small">val_bpb</text><line x1="110" y1="868.00" x2="626" y2="868.00" stroke="#e5e7eb" stroke-width="1"/><text x="56.00" y="872.00" class="small">1.3838</text><line x1="110" y1="753.00" x2="626" y2="753.00" stroke="#e5e7eb" stroke-width="1"/><text x="56.00" y="757.00" class="small">1.4880</text><line x1="110" y1="638.00" x2="626" y2="638.00" stroke="#e5e7eb" stroke-width="1"/><text x="56.00" y="642.00" class="small">1.5921</text><line x1="110.00" y1="868" x2="110.00" y2="638" stroke="#f1f5f9" stroke-width="1"/><text x="98.00" y="886.00" class="small">342.0</text><line x1="368.00" y1="868" x2="368.00" y2="638" stroke="#f1f5f9" stroke-width="1"/><text x="356.00" y="886.00" class="small">845.5</text><line x1="626.00" y1="868" x2="626.00" y2="638" stroke="#f1f5f9" stroke-width="1"/><text x="614.00" y="886.00" class="small">1349.0</text><circle cx="110.00" cy="638.00" r="6" fill="#1f7a4d" stroke="#ffffff" stroke-width="1.5"/><text x="118.00" y="630.00" class="small">002</text><circle cx="290.88" cy="823.72" r="6" fill="#1f7a4d" stroke="#ffffff" stroke-width="1.5"/><text x="298.88" y="815.72" class="small">003</text><circle cx="319.58" cy="851.22" r="6" fill="#1f7a4d" stroke="#ffffff" stroke-width="1.5"/><text x="327.58" y="843.22" class="small">001</text><circle cx="281.15" cy="837.64" r="6" fill="#b03a2e" stroke="#ffffff" stroke-width="1.5"/><text x="289.15" y="829.64" class="small">002</text><circle cx="384.65" cy="859.39" r="6" fill="#1f7a4d" stroke="#ffffff" stroke-width="1.5"/><text x="392.65" y="851.39" class="small">003</text><circle cx="553.75" cy="859.72" r="6" fill="#1f7a4d" stroke="#ffffff" stroke-width="1.5"/><text x="561.75" y="851.72" class="small">004</text><circle cx="393.88" cy="853.09" r="6" fill="#b03a2e" stroke="#ffffff" stroke-width="1.5"/><text x="401.88" y="845.09" class="small">005</text><circle cx="469.71" cy="851.66" r="6" fill="#b03a2e" stroke="#ffffff" stroke-width="1.5"/><text x="477.71" y="843.66" class="small">006</text><circle cx="317.01" cy="842.82" r="6" fill="#b03a2e" stroke="#ffffff" stroke-width="1.5"/><text x="325.01" y="834.82" class="small">007</text><circle cx="420.52" cy="846.69" r="6" fill="#b03a2e" stroke="#ffffff" stroke-width="1.5"/><text x="428.52" y="838.69" class="small">008</text><circle cx="359.55" cy="855.30" r="6" fill="#b03a2e" stroke="#ffffff" stroke-width="1.5"/><text x="367.55" y="847.30" class="small">009</text><circle cx="526.59" cy="861.26" r="6" fill="#b03a2e" stroke="#ffffff" stroke-width="1.5"/><text x="534.59" y="853.26" class="small">010</text><circle cx="521.98" cy="853.42" r="6" fill="#b03a2e" stroke="#ffffff" stroke-width="1.5"/><text x="529.98" y="845.42" class="small">011</text><circle cx="626.00" cy="868.00" r="6" fill="#1f7a4d" stroke="#ffffff" stroke-width="1.5"/><text x="634.00" y="860.00" class="small">012</text><circle cx="594.23" cy="859.50" r="6" fill="#b03a2e" stroke="#ffffff" stroke-width="1.5"/><text x="602.23" y="851.50" class="small">013</text><rect x="670" y="590" width="610" height="320" rx="18" fill="#ffffff" stroke="#d6d3d1"/><text x="690" y="618" class="paneltitle">Artifact size vs val_bpb</text><line x1="740" y1="868" x2="1256" y2="868" stroke="#94a3b8" stroke-width="1.5"/><line x1="740" y1="868" x2="740" y2="638" stroke="#94a3b8" stroke-width="1.5"/><text x="998.00" y="896.00" class="small">artifact MB</text><text x="692.00" y="628.00" class="small">val_bpb</text><line x1="740" y1="868.00" x2="1256" y2="868.00" stroke="#e5e7eb" stroke-width="1"/><text x="686.00" y="872.00" class="small">1.3838</text><line x1="740" y1="753.00" x2="1256" y2="753.00" stroke="#e5e7eb" stroke-width="1"/><text x="686.00" y="757.00" class="small">1.3975</text><line x1="740" y1="638.00" x2="1256" y2="638.00" stroke="#e5e7eb" stroke-width="1"/><text x="686.00" y="642.00" class="small">1.4113</text><line x1="740.00" y1="868" x2="740.00" y2="638" stroke="#f1f5f9" stroke-width="1"/><text x="728.00" y="886.00" class="small">11.3</text><line x1="998.00" y1="868" x2="998.00" y2="638" stroke="#f1f5f9" stroke-width="1"/><text x="986.00" y="886.00" class="small">14.5</text><line x1="1256.00" y1="868" x2="1256.00" y2="638" stroke="#f1f5f9" stroke-width="1"/><text x="1244.00" y="886.00" class="small">17.7</text><circle cx="850.28" cy="740.87" r="6" fill="#1f7a4d" stroke="#ffffff" stroke-width="1.5"/><text x="858.28" y="732.87" class="small">001</text><circle cx="933.20" cy="638.00" r="6" fill="#b03a2e" stroke="#ffffff" stroke-width="1.5"/><text x="941.20" y="630.00" class="small">002</text><circle cx="1001.62" cy="802.76" r="6" fill="#1f7a4d" stroke="#ffffff" stroke-width="1.5"/><text x="1009.62" y="794.76" class="small">003</text><circle cx="1106.27" cy="805.27" r="6" fill="#1f7a4d" stroke="#ffffff" stroke-width="1.5"/><text x="1114.27" y="797.27" class="small">004</text><circle cx="911.46" cy="755.09" r="6" fill="#b03a2e" stroke="#ffffff" stroke-width="1.5"/><text x="919.46" y="747.09" class="small">005</text><circle cx="740.00" cy="744.22" r="6" fill="#b03a2e" stroke="#ffffff" stroke-width="1.5"/><text x="748.00" y="736.22" class="small">006</text><circle cx="1235.88" cy="677.31" r="6" fill="#b03a2e" stroke="#ffffff" stroke-width="1.5"/><text x="1243.88" y="669.31" class="small">007</text><circle cx="801.18" cy="706.58" r="6" fill="#b03a2e" stroke="#ffffff" stroke-width="1.5"/><text x="809.18" y="698.58" class="small">008</text><circle cx="1135.25" cy="771.82" r="6" fill="#b03a2e" stroke="#ffffff" stroke-width="1.5"/><text x="1143.25" y="763.82" class="small">009</text><circle cx="1256.00" cy="816.98" r="6" fill="#b03a2e" stroke="#ffffff" stroke-width="1.5"/><text x="1264.00" y="808.98" class="small">010</text><circle cx="1091.78" cy="757.60" r="6" fill="#b03a2e" stroke="#ffffff" stroke-width="1.5"/><text x="1099.78" y="749.60" class="small">011</text><circle cx="1018.53" cy="868.00" r="6" fill="#1f7a4d" stroke="#ffffff" stroke-width="1.5"/><text x="1026.53" y="860.00" class="small">012</text><circle cx="975.06" cy="803.60" r="6" fill="#b03a2e" stroke="#ffffff" stroke-width="1.5"/><text x="983.06" y="795.60" class="small">013</text><rect x="40" y="940" width="1240" height="72" rx="14" fill="#fffdf8" stroke="#d6d3d1"/><text x="60" y="964" class="body">Current best: AL-20260329-012 at 1.3838 val_bpb.</text><text x="60" y="982" class="body">Latest run: AL-20260329-013 (discard) tested a stronger global trim to `DIM448` may recover most of the `9L / MLP3 / 131072` score while staying clearly inside the size cap.</text><text x="60" y="1000" class="body">Read agent_lab/state.md for the live dashboard and agent_lab/tranches.md for the tranche map.</text></svg>
