<svg xmlns="http://www.w3.org/2000/svg" width="1320" height="1040" viewBox="0 0 1320 1040"><rect width="100%" height="100%" fill="#f6f4ef"/><style>text{font-family:ui-sans-serif,system-ui,-apple-system,BlinkMacSystemFont,"Segoe UI",sans-serif;fill:#1f2937}.small{font-size:12px}.body{font-size:14px}.label{font-size:15px;font-weight:600}.title{font-size:28px;font-weight:700}.cardtitle{font-size:13px;font-weight:700;letter-spacing:.08em;text-transform:uppercase;fill:#475569}.metric{font-size:30px;font-weight:700}.paneltitle{font-size:18px;font-weight:700}</style><text x="40" y="56" class="title">Agent Lab Experiment Dashboard</text><text x="40" y="84" class="body">Best run AL-20260329-027 reached 1.3582 val_bpb. 32 scored runs are tracked here, with 12 kept and 20 discarded.</text><rect x="40" y="110" width="290" height="78" rx="14" fill="#ffffff" stroke="#d6d3d1"/><text x="60" y="134" class="cardtitle">Current Best</text><text x="60" y="164" class="metric">1.3582</text><text x="60" y="180" class="small">AL-20260329-027 (30167d0)</text><rect x="350" y="110" width="290" height="78" rx="14" fill="#ffffff" stroke="#d6d3d1"/><text x="370" y="134" class="cardtitle">Tracked Runs</text><text x="370" y="164" class="metric">32</text><text x="370" y="180" class="small">12 keep / 20 discard</text><rect x="660" y="110" width="290" height="78" rx="14" fill="#ffffff" stroke="#d6d3d1"/><text x="680" y="134" class="cardtitle">Primary Metric</text><text x="680" y="164" class="metric">final_int8_ttt_lora</text><text x="680" y="180" class="small">lower is better</text><rect x="970" y="110" width="290" height="78" rx="14" fill="#ffffff" stroke="#d6d3d1"/><text x="990" y="134" class="cardtitle">Mean val_bpb</text><text x="990" y="164" class="metric">1.4020</text><text x="990" y="180" class="small">across scored runs</text><rect x="40" y="220" width="610" height="320" rx="18" fill="#ffffff" stroke="#d6d3d1"/><text x="60" y="248" class="paneltitle">val_bpb by experiment</text><line x1="110" y1="498" x2="626" y2="498" stroke="#94a3b8" stroke-width="1.5"/><line x1="110" y1="498" x2="110" y2="268" stroke="#94a3b8" stroke-width="1.5"/><text x="368.00" y="526.00" class="small">experiment order</text><text x="62.00" y="258.00" class="small">val_bpb</text><line x1="110" y1="498.00" x2="626" y2="498.00" stroke="#e5e7eb" stroke-width="1"/><text x="56.00" y="502.00" class="small">1.3582</text><line x1="110" y1="383.00" x2="626" y2="383.00" stroke="#e5e7eb" stroke-width="1"/><text x="56.00" y="387.00" class="small">1.4841</text><line x1="110" y1="268.00" x2="626" y2="268.00" stroke="#e5e7eb" stroke-width="1"/><text x="56.00" y="272.00" class="small">1.6099</text><polyline fill="none" stroke="#1d4ed8" stroke-width="3" points="110.00,268.00 126.65,284.27 143.29,437.96 159.94,448.02 176.58,460.72 193.23,449.48 209.87,467.48 226.52,467.75 243.16,462.27 259.81,461.08 276.45,453.77 293.10,456.97 309.74,464.10 326.39,469.03 343.03,462.55 359.68,474.61 376.32,467.57 392.97,467.02 409.61,468.39 426.26,485.30 442.90,468.12 459.55,479.36 476.19,477.35 492.84,473.24 509.48,486.39 526.13,462.73 542.77,481.19 559.42,480.18 576.06,483.29 592.71,495.08 609.35,498.00 626.00,493.80"/><circle cx="110.00" cy="268.00" r="5.5" fill="#1f7a4d" stroke="#ffffff" stroke-width="1.5"/><text x="118.00" y="260.00" class="small">001</text><circle cx="126.65" cy="284.27" r="5.5" fill="#1f7a4d" stroke="#ffffff" stroke-width="1.5"/><text x="134.65" y="276.27" class="small">002</text><circle cx="143.29" cy="437.96" r="5.5" fill="#1f7a4d" stroke="#ffffff" stroke-width="1.5"/><text x="151.29" y="429.96" class="small">003</text><circle cx="159.94" cy="448.02" r="5.5" fill="#1f7a4d" stroke="#ffffff" stroke-width="1.5"/><text x="167.94" y="440.02" class="small">004</text><circle cx="176.58" cy="460.72" r="5.5" fill="#1f7a4d" stroke="#ffffff" stroke-width="1.5"/><text x="184.58" y="452.72" class="small">001</text><circle cx="193.23" cy="449.48" r="5.5" fill="#b03a2e" stroke="#ffffff" stroke-width="1.5"/><text x="201.23" y="441.48" class="small">002</text><circle cx="209.87" cy="467.48" r="5.5" fill="#1f7a4d" stroke="#ffffff" stroke-width="1.5"/><text x="217.87" y="459.48" class="small">003</text><circle cx="226.52" cy="467.75" r="5.5" fill="#1f7a4d" stroke="#ffffff" stroke-width="1.5"/><text x="234.52" y="459.75" class="small">004</text><circle cx="243.16" cy="462.27" r="5.5" fill="#b03a2e" stroke="#ffffff" stroke-width="1.5"/><text x="251.16" y="454.27" class="small">005</text><circle cx="259.81" cy="461.08" r="5.5" fill="#b03a2e" stroke="#ffffff" stroke-width="1.5"/><text x="267.81" y="453.08" class="small">006</text><circle cx="276.45" cy="453.77" r="5.5" fill="#b03a2e" stroke="#ffffff" stroke-width="1.5"/><text x="284.45" y="445.77" class="small">007</text><circle cx="293.10" cy="456.97" r="5.5" fill="#b03a2e" stroke="#ffffff" stroke-width="1.5"/><text x="301.10" y="448.97" class="small">008</text><circle cx="309.74" cy="464.10" r="5.5" fill="#b03a2e" stroke="#ffffff" stroke-width="1.5"/><text x="317.74" y="456.10" class="small">009</text><circle cx="326.39" cy="469.03" r="5.5" fill="#b03a2e" stroke="#ffffff" stroke-width="1.5"/><text x="334.39" y="461.03" class="small">010</text><circle cx="343.03" cy="462.55" r="5.5" fill="#b03a2e" stroke="#ffffff" stroke-width="1.5"/><text x="351.03" y="454.55" class="small">011</text><circle cx="359.68" cy="474.61" r="5.5" fill="#1f7a4d" stroke="#ffffff" stroke-width="1.5"/><text x="367.68" y="466.61" class="small">012</text><circle cx="376.32" cy="467.57" r="5.5" fill="#b03a2e" stroke="#ffffff" stroke-width="1.5"/><text x="384.32" y="459.57" class="small">013</text><circle cx="392.97" cy="467.02" r="5.5" fill="#b03a2e" stroke="#ffffff" stroke-width="1.5"/><text x="400.97" y="459.02" class="small">014</text><circle cx="409.61" cy="468.39" r="5.5" fill="#b03a2e" stroke="#ffffff" stroke-width="1.5"/><text x="417.61" y="460.39" class="small">015</text><circle cx="426.26" cy="485.30" r="5.5" fill="#1f7a4d" stroke="#ffffff" stroke-width="1.5"/><text x="434.26" y="477.30" class="small">016</text><circle cx="442.90" cy="468.12" r="5.5" fill="#b03a2e" stroke="#ffffff" stroke-width="1.5"/><text x="450.90" y="460.12" class="small">017</text><circle cx="459.55" cy="479.36" r="5.5" fill="#b03a2e" stroke="#ffffff" stroke-width="1.5"/><text x="467.55" y="471.36" class="small">018</text><circle cx="476.19" cy="477.35" r="5.5" fill="#b03a2e" stroke="#ffffff" stroke-width="1.5"/><text x="484.19" y="469.35" class="small">019</text><circle cx="492.84" cy="473.24" r="5.5" fill="#b03a2e" stroke="#ffffff" stroke-width="1.5"/><text x="500.84" y="465.24" class="small">020</text><circle cx="509.48" cy="486.39" r="5.5" fill="#1f7a4d" stroke="#ffffff" stroke-width="1.5"/><text x="517.48" y="478.39" class="small">021</text><circle cx="526.13" cy="462.73" r="5.5" fill="#b03a2e" stroke="#ffffff" stroke-width="1.5"/><text x="534.13" y="454.73" class="small">022</text><circle cx="542.77" cy="481.19" r="5.5" fill="#b03a2e" stroke="#ffffff" stroke-width="1.5"/><text x="550.77" y="473.19" class="small">023</text><circle cx="559.42" cy="480.18" r="5.5" fill="#b03a2e" stroke="#ffffff" stroke-width="1.5"/><text x="567.42" y="472.18" class="small">024</text><circle cx="576.06" cy="483.29" r="5.5" fill="#b03a2e" stroke="#ffffff" stroke-width="1.5"/><text x="584.06" y="475.29" class="small">025</text><circle cx="592.71" cy="495.08" r="5.5" fill="#1f7a4d" stroke="#ffffff" stroke-width="1.5"/><text x="600.71" y="487.08" class="small">026</text><circle cx="609.35" cy="498.00" r="5.5" fill="#1f7a4d" stroke="#ffffff" stroke-width="1.5"/><text x="617.35" y="490.00" class="small">027</text><circle cx="626.00" cy="493.80" r="5.5" fill="#b03a2e" stroke="#ffffff" stroke-width="1.5"/><text x="634.00" y="485.80" class="small">028</text><rect x="670" y="220" width="610" height="320" rx="18" fill="#ffffff" stroke="#d6d3d1"/><text x="690" y="248" class="paneltitle">Running best frontier</text><line x1="740" y1="498" x2="1256" y2="498" stroke="#94a3b8" stroke-width="1.5"/><line x1="740" y1="498" x2="740" y2="268" stroke="#94a3b8" stroke-width="1.5"/><text x="998.00" y="526.00" class="small">experiment order</text><text x="692.00" y="258.00" class="small">best so far</text><line x1="740" y1="498.00" x2="1256" y2="498.00" stroke="#e5e7eb" stroke-width="1"/><text x="686.00" y="502.00" class="small">1.3582</text><line x1="740" y1="383.00" x2="1256" y2="383.00" stroke="#e5e7eb" stroke-width="1"/><text x="686.00" y="387.00" class="small">1.4841</text><line x1="740" y1="268.00" x2="1256" y2="268.00" stroke="#e5e7eb" stroke-width="1"/><text x="686.00" y="272.00" class="small">1.6099</text><polyline fill="none" stroke="#1d4ed8" stroke-width="3" points="740.00,268.00 756.65,284.27 773.29,437.96 789.94,448.02 806.58,460.72 823.23,460.72 839.87,467.48 856.52,467.75 873.16,467.75 889.81,467.75 906.45,467.75 923.10,467.75 939.74,467.75 956.39,469.03 973.03,469.03 989.68,474.61 1006.32,474.61 1022.97,474.61 1039.61,474.61 1056.26,485.30 1072.90,485.30 1089.55,485.30 1106.19,485.30 1122.84,485.30 1139.48,486.39 1156.13,486.39 1172.77,486.39 1189.42,486.39 1206.06,486.39 1222.71,495.08 1239.35,498.00 1256.00,498.00"/><circle cx="740.00" cy="268.00" r="5.5" fill="#1f7a4d" stroke="#ffffff" stroke-width="1.5"/><circle cx="756.65" cy="284.27" r="5.5" fill="#1f7a4d" stroke="#ffffff" stroke-width="1.5"/><circle cx="773.29" cy="437.96" r="5.5" fill="#1f7a4d" stroke="#ffffff" stroke-width="1.5"/><circle cx="789.94" cy="448.02" r="5.5" fill="#1f7a4d" stroke="#ffffff" stroke-width="1.5"/><circle cx="806.58" cy="460.72" r="5.5" fill="#1f7a4d" stroke="#ffffff" stroke-width="1.5"/><circle cx="823.23" cy="460.72" r="5.5" fill="#b03a2e" stroke="#ffffff" stroke-width="1.5"/><circle cx="839.87" cy="467.48" r="5.5" fill="#1f7a4d" stroke="#ffffff" stroke-width="1.5"/><circle cx="856.52" cy="467.75" r="5.5" fill="#1f7a4d" stroke="#ffffff" stroke-width="1.5"/><circle cx="873.16" cy="467.75" r="5.5" fill="#b03a2e" stroke="#ffffff" stroke-width="1.5"/><circle cx="889.81" cy="467.75" r="5.5" fill="#b03a2e" stroke="#ffffff" stroke-width="1.5"/><circle cx="906.45" cy="467.75" r="5.5" fill="#b03a2e" stroke="#ffffff" stroke-width="1.5"/><circle cx="923.10" cy="467.75" r="5.5" fill="#b03a2e" stroke="#ffffff" stroke-width="1.5"/><circle cx="939.74" cy="467.75" r="5.5" fill="#b03a2e" stroke="#ffffff" stroke-width="1.5"/><circle cx="956.39" cy="469.03" r="5.5" fill="#b03a2e" stroke="#ffffff" stroke-width="1.5"/><circle cx="973.03" cy="469.03" r="5.5" fill="#b03a2e" stroke="#ffffff" stroke-width="1.5"/><circle cx="989.68" cy="474.61" r="5.5" fill="#1f7a4d" stroke="#ffffff" stroke-width="1.5"/><circle cx="1006.32" cy="474.61" r="5.5" fill="#b03a2e" stroke="#ffffff" stroke-width="1.5"/><circle cx="1022.97" cy="474.61" r="5.5" fill="#b03a2e" stroke="#ffffff" stroke-width="1.5"/><circle cx="1039.61" cy="474.61" r="5.5" fill="#b03a2e" stroke="#ffffff" stroke-width="1.5"/><circle cx="1056.26" cy="485.30" r="5.5" fill="#1f7a4d" stroke="#ffffff" stroke-width="1.5"/><circle cx="1072.90" cy="485.30" r="5.5" fill="#b03a2e" stroke="#ffffff" stroke-width="1.5"/><circle cx="1089.55" cy="485.30" r="5.5" fill="#b03a2e" stroke="#ffffff" stroke-width="1.5"/><circle cx="1106.19" cy="485.30" r="5.5" fill="#b03a2e" stroke="#ffffff" stroke-width="1.5"/><circle cx="1122.84" cy="485.30" r="5.5" fill="#b03a2e" stroke="#ffffff" stroke-width="1.5"/><circle cx="1139.48" cy="486.39" r="5.5" fill="#1f7a4d" stroke="#ffffff" stroke-width="1.5"/><circle cx="1156.13" cy="486.39" r="5.5" fill="#b03a2e" stroke="#ffffff" stroke-width="1.5"/><circle cx="1172.77" cy="486.39" r="5.5" fill="#b03a2e" stroke="#ffffff" stroke-width="1.5"/><circle cx="1189.42" cy="486.39" r="5.5" fill="#b03a2e" stroke="#ffffff" stroke-width="1.5"/><circle cx="1206.06" cy="486.39" r="5.5" fill="#b03a2e" stroke="#ffffff" stroke-width="1.5"/><circle cx="1222.71" cy="495.08" r="5.5" fill="#1f7a4d" stroke="#ffffff" stroke-width="1.5"/><circle cx="1239.35" cy="498.00" r="5.5" fill="#1f7a4d" stroke="#ffffff" stroke-width="1.5"/><circle cx="1256.00" cy="498.00" r="5.5" fill="#b03a2e" stroke="#ffffff" stroke-width="1.5"/><rect x="40" y="590" width="610" height="320" rx="18" fill="#ffffff" stroke="#d6d3d1"/><text x="60" y="618" class="paneltitle">Training steps vs val_bpb</text><line x1="110" y1="868" x2="626" y2="868" stroke="#94a3b8" stroke-width="1.5"/><line x1="110" y1="868" x2="110" y2="638" stroke="#94a3b8" stroke-width="1.5"/><text x="368.00" y="896.00" class="small">steps in 600s</text><text x="62.00" y="628.00" class="small">val_bpb</text><line x1="110" y1="868.00" x2="626" y2="868.00" stroke="#e5e7eb" stroke-width="1"/><text x="56.00" y="872.00" class="small">1.3582</text><line x1="110" y1="753.00" x2="626" y2="753.00" stroke="#e5e7eb" stroke-width="1"/><text x="56.00" y="757.00" class="small">1.4752</text><line x1="110" y1="638.00" x2="626" y2="638.00" stroke="#e5e7eb" stroke-width="1"/><text x="56.00" y="642.00" class="small">1.5921</text><line x1="110.00" y1="868" x2="110.00" y2="638" stroke="#f1f5f9" stroke-width="1"/><text x="98.00" y="886.00" class="small">342.0</text><line x1="368.00" y1="868" x2="368.00" y2="638" stroke="#f1f5f9" stroke-width="1"/><text x="356.00" y="886.00" class="small">1045.0</text><line x1="626.00" y1="868" x2="626.00" y2="638" stroke="#f1f5f9" stroke-width="1"/><text x="614.00" y="886.00" class="small">1748.0</text><circle cx="110.00" cy="638.00" r="6" fill="#1f7a4d" stroke="#ffffff" stroke-width="1.5"/><text x="118.00" y="630.00" class="small">002</text><circle cx="239.55" cy="803.40" r="6" fill="#1f7a4d" stroke="#ffffff" stroke-width="1.5"/><text x="247.55" y="795.40" class="small">003</text><circle cx="260.10" cy="827.88" r="6" fill="#1f7a4d" stroke="#ffffff" stroke-width="1.5"/><text x="268.10" y="819.88" class="small">001</text><circle cx="232.58" cy="815.79" r="6" fill="#b03a2e" stroke="#ffffff" stroke-width="1.5"/><text x="240.58" y="807.79" class="small">002</text><circle cx="306.71" cy="835.16" r="6" fill="#1f7a4d" stroke="#ffffff" stroke-width="1.5"/><text x="314.71" y="827.16" class="small">003</text><circle cx="427.82" cy="835.45" r="6" fill="#1f7a4d" stroke="#ffffff" stroke-width="1.5"/><text x="435.82" y="827.45" class="small">004</text><circle cx="313.32" cy="829.55" r="6" fill="#b03a2e" stroke="#ffffff" stroke-width="1.5"/><text x="321.32" y="821.55" class="small">005</text><circle cx="367.63" cy="828.27" r="6" fill="#b03a2e" stroke="#ffffff" stroke-width="1.5"/><text x="375.63" y="820.27" class="small">006</text><circle cx="258.27" cy="820.41" r="6" fill="#b03a2e" stroke="#ffffff" stroke-width="1.5"/><text x="266.27" y="812.41" class="small">007</text><circle cx="332.40" cy="823.85" r="6" fill="#b03a2e" stroke="#ffffff" stroke-width="1.5"/><text x="340.40" y="815.85" class="small">008</text><circle cx="288.73" cy="831.52" r="6" fill="#b03a2e" stroke="#ffffff" stroke-width="1.5"/><text x="296.73" y="823.52" class="small">009</text><circle cx="408.37" cy="836.83" r="6" fill="#b03a2e" stroke="#ffffff" stroke-width="1.5"/><text x="416.37" y="828.83" class="small">010</text><circle cx="405.07" cy="829.85" r="6" fill="#b03a2e" stroke="#ffffff" stroke-width="1.5"/><text x="413.07" y="821.85" class="small">011</text><circle cx="479.57" cy="842.83" r="6" fill="#1f7a4d" stroke="#ffffff" stroke-width="1.5"/><text x="487.57" y="834.83" class="small">012</text><circle cx="456.81" cy="835.26" r="6" fill="#b03a2e" stroke="#ffffff" stroke-width="1.5"/><text x="464.81" y="827.26" class="small">013</text><circle cx="463.05" cy="834.67" r="6" fill="#b03a2e" stroke="#ffffff" stroke-width="1.5"/><text x="471.05" y="826.67" class="small">014</text><circle cx="458.65" cy="836.14" r="6" fill="#b03a2e" stroke="#ffffff" stroke-width="1.5"/><text x="466.65" y="828.14" class="small">015</text><circle cx="614.99" cy="854.33" r="6" fill="#1f7a4d" stroke="#ffffff" stroke-width="1.5"/><text x="622.99" y="846.33" class="small">016</text><circle cx="479.20" cy="835.85" r="6" fill="#b03a2e" stroke="#ffffff" stroke-width="1.5"/><text x="487.20" y="827.85" class="small">017</text><circle cx="615.36" cy="847.94" r="6" fill="#b03a2e" stroke="#ffffff" stroke-width="1.5"/><text x="623.36" y="839.94" class="small">018</text><circle cx="591.87" cy="845.78" r="6" fill="#b03a2e" stroke="#ffffff" stroke-width="1.5"/><text x="599.87" y="837.78" class="small">019</text><circle cx="592.60" cy="841.35" r="6" fill="#b03a2e" stroke="#ffffff" stroke-width="1.5"/><text x="600.60" y="833.35" class="small">020</text><circle cx="590.77" cy="855.51" r="6" fill="#1f7a4d" stroke="#ffffff" stroke-width="1.5"/><text x="598.77" y="847.51" class="small">021</text><circle cx="626.00" cy="830.04" r="6" fill="#b03a2e" stroke="#ffffff" stroke-width="1.5"/><text x="634.00" y="822.04" class="small">022</text><circle cx="589.67" cy="849.91" r="6" fill="#b03a2e" stroke="#ffffff" stroke-width="1.5"/><text x="597.67" y="841.91" class="small">023</text><circle cx="614.62" cy="848.83" r="6" fill="#b03a2e" stroke="#ffffff" stroke-width="1.5"/><text x="622.62" y="840.83" class="small">024</text><circle cx="614.62" cy="852.17" r="6" fill="#b03a2e" stroke="#ffffff" stroke-width="1.5"/><text x="622.62" y="844.17" class="small">025</text><circle cx="590.40" cy="864.85" r="6" fill="#1f7a4d" stroke="#ffffff" stroke-width="1.5"/><text x="598.40" y="856.85" class="small">026</text><circle cx="590.40" cy="868.00" r="6" fill="#1f7a4d" stroke="#ffffff" stroke-width="1.5"/><text x="598.40" y="860.00" class="small">027</text><circle cx="590.03" cy="863.48" r="6" fill="#b03a2e" stroke="#ffffff" stroke-width="1.5"/><text x="598.03" y="855.48" class="small">028</text><rect x="670" y="590" width="610" height="320" rx="18" fill="#ffffff" stroke="#d6d3d1"/><text x="690" y="618" class="paneltitle">Artifact size vs val_bpb</text><line x1="740" y1="868" x2="1256" y2="868" stroke="#94a3b8" stroke-width="1.5"/><line x1="740" y1="868" x2="740" y2="638" stroke="#94a3b8" stroke-width="1.5"/><text x="998.00" y="896.00" class="small">artifact MB</text><text x="692.00" y="628.00" class="small">val_bpb</text><line x1="740" y1="868.00" x2="1256" y2="868.00" stroke="#e5e7eb" stroke-width="1"/><text x="686.00" y="872.00" class="small">1.3582</text><line x1="740" y1="753.00" x2="1256" y2="753.00" stroke="#e5e7eb" stroke-width="1"/><text x="686.00" y="757.00" class="small">1.3847</text><line x1="740" y1="638.00" x2="1256" y2="638.00" stroke="#e5e7eb" stroke-width="1"/><text x="686.00" y="642.00" class="small">1.4113</text><line x1="740.00" y1="868" x2="740.00" y2="638" stroke="#f1f5f9" stroke-width="1"/><text x="728.00" y="886.00" class="small">11.3</text><line x1="998.00" y1="868" x2="998.00" y2="638" stroke="#f1f5f9" stroke-width="1"/><text x="986.00" y="886.00" class="small">14.5</text><line x1="1256.00" y1="868" x2="1256.00" y2="638" stroke="#f1f5f9" stroke-width="1"/><text x="1244.00" y="886.00" class="small">17.7</text><circle cx="850.28" cy="691.28" r="6" fill="#1f7a4d" stroke="#ffffff" stroke-width="1.5"/><text x="858.28" y="683.28" class="small">001</text><circle cx="933.20" cy="638.00" r="6" fill="#b03a2e" stroke="#ffffff" stroke-width="1.5"/><text x="941.20" y="630.00" class="small">002</text><circle cx="1001.62" cy="723.33" r="6" fill="#1f7a4d" stroke="#ffffff" stroke-width="1.5"/><text x="1009.62" y="715.33" class="small">003</text><circle cx="1106.27" cy="724.63" r="6" fill="#1f7a4d" stroke="#ffffff" stroke-width="1.5"/><text x="1114.27" y="716.63" class="small">004</text><circle cx="911.46" cy="698.64" r="6" fill="#b03a2e" stroke="#ffffff" stroke-width="1.5"/><text x="919.46" y="690.64" class="small">005</text><circle cx="740.00" cy="693.01" r="6" fill="#b03a2e" stroke="#ffffff" stroke-width="1.5"/><text x="748.00" y="685.01" class="small">006</text><circle cx="1235.88" cy="658.36" r="6" fill="#b03a2e" stroke="#ffffff" stroke-width="1.5"/><text x="1243.88" y="650.36" class="small">007</text><circle cx="801.18" cy="673.52" r="6" fill="#b03a2e" stroke="#ffffff" stroke-width="1.5"/><text x="809.18" y="665.52" class="small">008</text><circle cx="1135.25" cy="707.30" r="6" fill="#b03a2e" stroke="#ffffff" stroke-width="1.5"/><text x="1143.25" y="699.30" class="small">009</text><circle cx="1256.00" cy="730.69" r="6" fill="#b03a2e" stroke="#ffffff" stroke-width="1.5"/><text x="1264.00" y="722.69" class="small">010</text><circle cx="1091.78" cy="699.94" r="6" fill="#b03a2e" stroke="#ffffff" stroke-width="1.5"/><text x="1099.78" y="691.94" class="small">011</text><circle cx="1018.53" cy="757.11" r="6" fill="#1f7a4d" stroke="#ffffff" stroke-width="1.5"/><text x="1026.53" y="749.11" class="small">012</text><circle cx="975.06" cy="723.76" r="6" fill="#b03a2e" stroke="#ffffff" stroke-width="1.5"/><text x="983.06" y="715.76" class="small">013</text><circle cx="1144.11" cy="721.16" r="6" fill="#b03a2e" stroke="#ffffff" stroke-width="1.5"/><text x="1152.11" y="713.16" class="small">014</text><circle cx="993.57" cy="727.66" r="6" fill="#b03a2e" stroke="#ffffff" stroke-width="1.5"/><text x="1001.57" y="719.66" class="small">015</text><circle cx="1078.90" cy="807.79" r="6" fill="#1f7a4d" stroke="#ffffff" stroke-width="1.5"/><text x="1086.90" y="799.79" class="small">016</text><circle cx="1033.82" cy="726.36" r="6" fill="#b03a2e" stroke="#ffffff" stroke-width="1.5"/><text x="1041.82" y="718.36" class="small">017</text><circle cx="1084.54" cy="779.64" r="6" fill="#b03a2e" stroke="#ffffff" stroke-width="1.5"/><text x="1092.54" y="771.64" class="small">018</text><circle cx="1055.56" cy="770.11" r="6" fill="#b03a2e" stroke="#ffffff" stroke-width="1.5"/><text x="1063.56" y="762.11" class="small">019</text><circle cx="1062.80" cy="750.62" r="6" fill="#b03a2e" stroke="#ffffff" stroke-width="1.5"/><text x="1070.80" y="742.62" class="small">020</text><circle cx="1066.83" cy="812.99" r="6" fill="#1f7a4d" stroke="#ffffff" stroke-width="1.5"/><text x="1074.83" y="804.99" class="small">021</text><circle cx="991.96" cy="700.81" r="6" fill="#b03a2e" stroke="#ffffff" stroke-width="1.5"/><text x="999.96" y="692.81" class="small">022</text><circle cx="1065.22" cy="788.30" r="6" fill="#b03a2e" stroke="#ffffff" stroke-width="1.5"/><text x="1073.22" y="780.30" class="small">023</text><circle cx="1076.49" cy="783.54" r="6" fill="#b03a2e" stroke="#ffffff" stroke-width="1.5"/><text x="1084.49" y="775.54" class="small">024</text><circle cx="1078.90" cy="798.26" r="6" fill="#b03a2e" stroke="#ffffff" stroke-width="1.5"/><text x="1086.90" y="790.26" class="small">025</text><circle cx="1103.05" cy="854.14" r="6" fill="#1f7a4d" stroke="#ffffff" stroke-width="1.5"/><text x="1111.05" y="846.14" class="small">026</text><circle cx="1102.25" cy="868.00" r="6" fill="#1f7a4d" stroke="#ffffff" stroke-width="1.5"/><text x="1110.25" y="860.00" class="small">027</text><circle cx="1102.25" cy="848.08" r="6" fill="#b03a2e" stroke="#ffffff" stroke-width="1.5"/><text x="1110.25" y="840.08" class="small">028</text><rect x="40" y="940" width="1240" height="72" rx="14" fill="#fffdf8" stroke="#d6d3d1"/><text x="60" y="964" class="body">Current best: AL-20260329-027 at 1.3582 val_bpb.</text><text x="60" y="982" class="body">Latest run: AL-20260329-028 (discard) tested the untied frontier may instead want less saturation, so a looser `LOGIT_SOFTCAP=40` could improve it.</text><text x="60" y="1000" class="body">Read agent_lab/state.md for the live dashboard and agent_lab/tranches.md for the tranche map.</text></svg>
